<?xml version="1.0" standalone="no"?>
<!DOCTYPE svg PUBLIC "-//W3C//DTD SVG 20010904//EN"
 "http://www.w3.org/TR/2001/REC-SVG-20010904/DTD/svg10.dtd">
<svg version="1.0" xmlns="http://www.w3.org/2000/svg"
 width="1440.000000pt" height="720.000000pt" viewBox="0 0 1440.000000 720.000000"
 preserveAspectRatio="xMidYMid meet">

<g transform="translate(0.000000,720.000000) scale(0.100000,-0.100000)"
fill="#000000" stroke="none">
<path d="M5174 5965 c-18 -43 -18 -58 1 -181 26 -175 28 -320 11 -814 -18
-501 -18 -511 -59 -670 -60 -233 -58 -357 6 -417 40 -38 141 -106 214 -144
137 -72 286 -11 369 152 51 101 41 257 -28 443 -20 55 -32 112 -38 185 -14
154 -28 271 -56 494 -42 331 -79 518 -138 680 -43 122 -75 176 -144 250 -46
47 -61 57 -89 57 -29 0 -36 -5 -49 -35z m139 -68 c134 -166 204 -453 282
-1157 14 -124 25 -234 25 -245 0 -15 -11 -9 -52 32 -66 64 -111 87 -169 86
-58 -1 -117 -31 -164 -85 l-37 -43 5 120 c3 66 11 297 18 512 10 319 9 420 -1
535 -29 315 -26 348 31 307 16 -11 44 -39 62 -62z m178 -1345 c98 -63 159
-168 204 -355 31 -128 32 -195 1 -268 -68 -166 -213 -232 -345 -158 -89 50
-198 129 -215 154 -25 37 -21 174 9 309 29 137 48 189 89 241 83 108 167 133
257 77z"/>
<path d="M9092 5951 c-152 -152 -234 -453 -311 -1136 -11 -99 -25 -230 -30
-290 -7 -80 -18 -134 -40 -193 -17 -45 -39 -127 -50 -182 -17 -82 -19 -109
-10 -157 22 -118 120 -249 205 -272 76 -21 137 -14 211 25 94 50 215 143 233
179 31 62 9 270 -49 465 -16 56 -22 133 -37 558 -18 513 -16 658 13 853 15
104 15 120 2 155 -13 34 -19 39 -51 42 -32 3 -42 -3 -86 -47z m102 -66 c0 -44
-6 -141 -13 -215 -14 -147 -10 -529 10 -933 7 -125 9 -230 6 -233 -3 -3 -20
10 -38 31 -65 73 -164 98 -240 60 -19 -9 -58 -40 -86 -68 -65 -63 -63 -84 -23
256 83 713 155 989 295 1134 75 78 90 72 89 -32z m-125 -1320 c15 -7 51 -39
79 -70 39 -42 57 -72 72 -122 55 -178 76 -383 46 -442 -15 -29 -118 -104 -219
-161 -51 -28 -65 -32 -115 -28 -75 6 -120 28 -167 85 -87 104 -103 206 -60
375 49 193 103 286 204 350 51 32 114 37 160 13z"/>
<path d="M6612 5733 c-7 -3 -22 -23 -33 -46 -19 -37 -21 -54 -18 -166 8 -245
0 -590 -16 -777 -20 -238 -26 -276 -60 -399 -26 -92 -28 -115 -29 -285 -1
-199 3 -218 56 -267 42 -40 76 -45 312 -51 339 -8 339 -7 296 293 -12 77 -34
195 -50 261 -16 67 -34 179 -40 250 -30 363 -86 704 -142 869 -42 123 -112
242 -181 306 -20 18 -66 24 -95 12z m95 -55 c101 -108 167 -277 219 -558 25
-139 84 -627 76 -635 -2 -2 -26 20 -53 49 -60 65 -133 100 -195 93 -53 -6
-129 -44 -159 -79 -35 -41 -43 -35 -34 28 29 213 41 482 36 770 -5 285 -5 302
13 332 26 42 57 42 97 0z m141 -1104 c137 -68 198 -217 248 -610 27 -203 35
-197 -308 -186 -250 8 -260 11 -290 98 -33 96 -16 364 33 511 18 56 33 79 83
129 42 42 73 64 101 71 61 17 77 15 133 -13z"/>
<path d="M7678 5707 c-167 -167 -252 -498 -313 -1217 -4 -41 -17 -118 -30
-170 -28 -113 -40 -179 -60 -319 -19 -131 -19 -175 0 -210 25 -50 53 -54 303
-49 235 6 267 11 310 51 46 42 56 75 60 202 5 143 -9 268 -42 385 -49 169 -81
638 -71 1021 6 187 4 252 -5 270 -40 78 -97 91 -152 36z m114 -35 c14 -30 16
-66 11 -325 -6 -279 10 -613 36 -779 10 -58 -2 -62 -45 -17 -37 40 -118 79
-164 79 -67 0 -165 -61 -212 -130 l-17 -25 0 40 c-1 47 33 352 54 498 48 318
121 531 222 646 55 63 88 67 115 13z m-111 -1083 c83 -29 164 -124 198 -234
45 -145 53 -425 15 -501 -35 -67 -55 -72 -327 -76 l-239 -3 -20 25 c-18 22
-20 34 -14 95 17 184 70 441 107 521 31 65 97 134 154 160 57 27 78 29 126 13z"/>
<path d="M5887 5652 c-22 -24 -23 -119 -2 -188 37 -127 49 -236 49 -469 0
-245 -20 -627 -35 -685 -19 -72 -39 -257 -39 -367 0 -111 0 -113 30 -146 54
-62 107 -77 282 -80 178 -2 191 2 228 78 20 42 22 56 16 137 -8 111 -30 227
-61 327 -16 52 -30 146 -45 296 -41 413 -96 696 -169 865 -41 95 -78 146 -145
202 -55 47 -86 55 -109 30z m108 -73 c48 -46 75 -81 100 -133 79 -166 138
-451 185 -896 5 -52 13 -113 16 -135 l7 -40 -46 42 c-57 52 -97 73 -141 73
-50 0 -80 -14 -132 -62 l-47 -43 6 50 c3 28 11 169 18 313 16 320 5 530 -36
685 -24 93 -33 186 -18 200 12 13 23 7 88 -54z m173 -1133 c31 -16 113 -100
131 -135 41 -75 81 -268 84 -403 2 -74 -1 -90 -19 -115 -37 -50 -56 -55 -203
-49 -113 5 -143 10 -187 30 -83 38 -88 52 -81 214 7 162 22 270 47 326 48 112
151 172 228 132z"/>
<path d="M8453 5660 c-11 -5 -49 -36 -82 -69 -46 -44 -71 -81 -101 -143 -77
-166 -141 -477 -180 -878 -20 -207 -29 -264 -55 -350 -28 -92 -55 -255 -55
-335 0 -62 29 -127 66 -152 25 -16 48 -18 174 -16 176 3 219 13 277 68 l43 42
0 109 c0 124 -13 259 -34 354 -8 36 -20 144 -25 240 -30 498 -24 701 25 897
19 75 25 121 22 164 -5 74 -22 90 -75 69z m47 -78 c0 -26 -11 -92 -25 -146
-47 -184 -56 -527 -24 -915 5 -68 8 -126 5 -128 -2 -2 -19 11 -36 31 -59 64
-137 83 -203 50 -18 -9 -51 -35 -75 -58 l-44 -41 6 45 c4 25 15 126 27 225 41
370 107 672 174 805 44 86 136 180 176 180 16 0 19 -8 19 -48z m-149 -1145
c111 -69 143 -159 156 -444 7 -168 2 -181 -84 -220 -49 -23 -74 -26 -194 -31
l-138 -5 -35 35 c-46 46 -51 83 -32 233 20 155 65 302 109 353 88 102 147 123
218 79z"/>
<path d="M3846 5637 c-31 -23 -36 -84 -29 -407 8 -401 -23 -873 -62 -966 -30
-72 -55 -198 -55 -279 1 -154 62 -222 245 -270 33 -8 75 -15 93 -15 46 0 146
54 204 110 38 37 47 54 53 92 9 61 -12 165 -60 293 -31 81 -40 120 -47 210
-31 400 -125 913 -203 1108 -28 70 -81 137 -107 137 -8 0 -22 -6 -32 -13z m62
-44 c67 -95 139 -372 196 -753 34 -227 61 -478 53 -487 -4 -4 -24 9 -45 29
-51 49 -78 61 -137 61 -56 0 -86 -12 -127 -51 -15 -14 -30 -24 -32 -21 -2 2 3
69 11 149 12 107 16 263 17 600 1 250 5 465 10 478 10 30 30 28 54 -5z m138
-1200 c17 -7 49 -33 73 -57 96 -98 176 -403 125 -481 -9 -14 -48 -46 -87 -72
-65 -42 -78 -47 -127 -47 -58 1 -186 41 -230 72 -83 60 -91 207 -23 416 21 65
35 89 73 127 68 68 117 78 196 42z"/>
<path d="M10474 5615 c-97 -103 -210 -615 -259 -1170 -11 -131 -18 -164 -50
-250 -73 -195 -81 -302 -28 -365 27 -33 119 -97 166 -118 40 -17 82 -15 166 8
173 48 231 114 231 262 0 83 -18 176 -53 281 -44 128 -62 385 -63 877 0 234
-1 434 -2 446 -2 25 -37 64 -59 64 -8 0 -30 -16 -49 -35z m67 -11 c11 -14 14
-106 15 -488 1 -362 5 -502 17 -606 9 -74 14 -136 12 -139 -3 -2 -20 10 -40
27 -79 70 -191 61 -268 -21 -15 -16 -30 -27 -34 -23 -8 8 11 187 48 449 55
392 131 692 200 788 23 33 31 35 50 13z m-23 -1222 c63 -46 108 -135 137 -274
29 -135 15 -232 -40 -284 -45 -42 -174 -88 -247 -88 -51 -1 -63 4 -126 47 -92
63 -102 79 -102 166 0 52 9 96 34 174 46 139 66 176 125 230 76 68 150 78 219
29z"/>
<path d="M4491 5559 c-80 -49 -95 -97 -79 -270 7 -81 8 -249 3 -489 -9 -490
-11 -520 -42 -615 -35 -108 -36 -218 -3 -293 39 -89 195 -192 293 -192 86 0
225 84 272 165 49 82 41 188 -25 345 -26 62 -28 74 -33 285 -6 225 -22 389
-57 575 -29 155 -76 333 -101 382 -57 114 -147 156 -228 107z m118 -23 c32
-17 73 -73 95 -131 41 -107 97 -383 121 -590 19 -171 35 -467 26 -478 -4 -4
-25 9 -46 29 -57 52 -106 74 -165 74 -64 0 -115 -21 -162 -67 -21 -20 -39 -35
-41 -32 -2 2 1 78 6 169 4 91 6 342 4 558 -5 389 -4 393 17 425 37 54 91 71
145 43z m106 -1145 c93 -42 173 -172 212 -344 15 -64 14 -74 -1 -122 -20 -65
-80 -124 -169 -166 -79 -37 -120 -37 -193 2 -140 73 -183 135 -184 259 0 263
167 448 335 371z"/>
<path d="M9785 5569 c-76 -44 -114 -113 -159 -292 -67 -263 -105 -565 -106
-833 0 -155 -1 -164 -29 -231 -105 -255 -70 -378 136 -482 85 -42 144 -42 225
1 79 42 156 112 179 163 28 61 26 193 -5 292 -20 65 -26 114 -35 293 -12 226
-13 713 -2 840 10 118 -1 167 -48 213 -33 33 -47 40 -88 44 -26 2 -57 -2 -68
-8z m131 -50 c45 -42 48 -63 36 -307 -10 -212 -2 -732 13 -834 6 -46 -2 -47
-41 -7 -91 96 -223 93 -334 -7 -21 -19 -40 -31 -43 -27 -6 12 10 328 23 442
18 163 50 340 86 484 34 138 49 176 87 231 40 57 125 70 173 25z m-54 -1139
c89 -59 147 -183 155 -336 7 -111 -12 -162 -78 -217 -62 -50 -155 -97 -194
-97 -65 0 -161 49 -227 115 -15 15 -35 51 -44 80 -15 48 -16 58 -1 122 28 123
68 211 122 271 88 97 182 118 267 62z"/>
<path d="M2864 5500 c-28 -11 -45 -55 -53 -142 l-7 -73 -22 42 c-39 75 -96 93
-134 43 -10 -14 -26 -61 -35 -105 -21 -102 -8 -220 47 -455 74 -309 78 -492
17 -647 -110 -275 -58 -425 159 -465 75 -13 126 0 191 49 l47 36 31 -18 c117
-70 118 -70 190 -70 75 1 117 16 168 64 37 34 45 50 57 111 12 63 0 161 -35
280 -21 75 -25 108 -27 270 -1 102 -1 253 1 335 6 287 -56 452 -215 572 -60
45 -79 54 -106 51 -28 -2 -35 -8 -43 -35 -5 -18 -13 -33 -17 -33 -4 0 -16 17
-27 38 -24 47 -120 149 -146 156 -11 2 -29 1 -41 -4z m85 -69 c58 -61 125
-173 151 -251 31 -93 46 -245 32 -334 -13 -85 -42 -178 -57 -183 -15 -4 -111
191 -180 365 l-57 144 4 127 c2 100 7 133 21 154 9 15 23 27 29 27 7 0 32 -22
57 -49z m-209 -96 c11 -19 40 -89 64 -157 94 -266 241 -577 271 -571 19 4 65
108 81 183 22 104 13 268 -21 395 -37 135 -23 185 42 152 43 -23 120 -94 152
-141 29 -43 61 -120 83 -196 9 -32 12 -144 13 -392 0 -192 -1 -348 -2 -348 -2
0 -23 15 -48 34 -59 45 -133 62 -195 45 -25 -7 -97 -13 -160 -14 -133 -2 -179
-9 -232 -36 -21 -11 -38 -16 -39 -12 0 5 0 55 1 113 1 139 -12 230 -62 440
-39 163 -42 185 -42 320 -1 116 2 153 16 183 22 48 49 49 78 2z m576 -1040
c40 -16 101 -71 120 -106 29 -57 56 -201 52 -279 -4 -90 -25 -127 -92 -160
-91 -44 -152 -37 -255 30 -34 22 -66 40 -71 40 -6 0 -28 -18 -50 -39 -67 -65
-137 -73 -255 -29 -46 17 -94 68 -106 112 -27 98 39 325 111 383 36 29 119 44
237 44 68 0 139 6 168 13 52 14 89 12 141 -9z"/>
<path d="M11484 5500 c-27 -11 -111 -105 -135 -152 -21 -41 -39 -50 -39 -19 0
28 -27 51 -58 51 -35 0 -152 -87 -192 -141 -46 -63 -78 -139 -101 -236 -20
-81 -21 -114 -20 -428 2 -334 1 -341 -23 -421 -65 -217 -52 -350 40 -413 99
-68 199 -67 304 4 29 19 57 35 62 35 6 0 25 -13 43 -29 18 -16 54 -37 80 -47
92 -35 243 13 300 94 28 41 30 50 29 130 0 91 -18 164 -61 262 -51 115 -42
339 27 625 50 207 65 333 51 425 -18 117 -43 160 -92 160 -28 0 -72 -41 -84
-80 -11 -36 -25 -21 -25 28 0 112 -45 177 -106 152z m64 -75 c9 -27 12 -78 10
-160 -4 -120 -4 -120 -62 -260 -64 -157 -156 -338 -171 -339 -17 -2 -55 132
-62 214 -11 149 25 306 100 431 95 160 157 198 185 114z m189 -92 c22 -51 29
-215 13 -311 -6 -42 -27 -139 -45 -214 -39 -158 -57 -303 -55 -433 1 -49 1
-93 1 -98 -1 -4 -18 1 -39 12 -52 27 -98 34 -232 36 -63 1 -135 7 -159 14 -57
15 -135 0 -188 -38 -21 -15 -42 -30 -48 -33 -16 -10 -13 675 3 732 41 143 75
204 153 274 68 61 114 85 132 67 18 -18 13 -86 -13 -171 -19 -63 -23 -99 -24
-220 -1 -158 12 -224 61 -309 21 -36 27 -41 38 -30 46 48 184 347 256 555 69
201 111 249 146 167z m-511 -1028 c32 -10 92 -15 170 -15 139 0 210 -17 253
-61 52 -51 108 -253 96 -342 -8 -56 -49 -110 -99 -131 -117 -49 -198 -41 -266
25 -22 22 -44 39 -50 39 -5 0 -36 -17 -69 -38 -82 -54 -140 -69 -200 -53 -64
17 -120 56 -137 96 -31 74 -1 303 49 376 33 49 91 90 144 105 61 16 52 16 109
-1z"/>
<path d="M1728 5460 c-15 -11 -31 -39 -38 -67 -8 -26 -19 -52 -26 -56 -26 -15
-86 -133 -106 -207 -29 -105 -28 -316 0 -555 30 -248 29 -296 -7 -365 -100
-190 -75 -324 78 -422 57 -36 129 -38 195 -6 49 24 38 27 125 -39 102 -77 241
-59 330 42 55 63 66 168 32 310 -17 70 -42 215 -57 325 -2 19 -11 127 -19 240
-15 224 -30 290 -92 415 -72 144 -196 295 -242 295 -17 0 -40 17 -76 55 -28
30 -56 55 -62 55 -5 0 -22 -9 -35 -20z m52 -30 c33 -18 60 -74 60 -127 0 -27
13 -91 30 -143 41 -129 60 -253 60 -390 0 -143 -9 -161 -44 -92 -53 105 -74
222 -94 522 l-7 114 -35 24 c-36 24 -39 38 -18 80 13 24 21 27 48 12z m172
-127 c96 -107 189 -273 222 -398 9 -33 21 -130 27 -215 9 -140 27 -318 46
-440 l6 -45 -38 34 c-67 59 -105 67 -380 87 -78 6 -119 -2 -207 -41 -16 -6
-18 0 -18 71 0 44 -7 133 -15 199 -47 382 -38 528 41 687 31 61 65 85 99 70
22 -10 25 -18 25 -69 1 -165 26 -378 55 -470 23 -73 83 -191 108 -212 22 -17
37 78 37 230 0 142 -15 234 -59 374 -30 91 -39 154 -24 168 15 16 43 5 75 -30z
m41 -1022 c86 -8 117 -15 158 -38 100 -54 143 -139 144 -283 0 -102 -20 -150
-83 -194 -77 -54 -183 -49 -258 14 -62 51 -90 57 -148 31 -65 -30 -113 -27
-170 10 -92 62 -129 144 -108 241 29 127 75 184 177 221 53 18 77 18 288 -2z"/>
<path d="M12575 5425 c-38 -40 -59 -55 -78 -55 -36 0 -92 -59 -171 -180 -120
-182 -149 -279 -165 -555 -11 -190 -44 -438 -67 -512 -21 -68 -29 -208 -15
-261 13 -47 68 -115 112 -137 85 -44 187 -37 260 18 23 18 50 38 61 46 16 12
25 11 69 -8 104 -43 188 -18 270 77 77 90 77 202 -2 352 -36 69 -37 124 -8
375 27 223 29 433 6 528 -19 76 -64 170 -101 208 -13 15 -30 46 -36 69 -12 43
-49 90 -72 90 -7 0 -35 -25 -63 -55z m93 -10 c18 -40 15 -65 -11 -74 -40 -15
-45 -33 -52 -171 -11 -241 -40 -390 -97 -504 -29 -57 -38 -32 -38 110 0 139
17 248 60 384 17 54 30 116 30 146 0 41 6 59 30 92 34 48 62 53 78 17z m-144
-131 c-1 -28 -11 -76 -22 -105 -41 -112 -62 -241 -62 -386 1 -76 6 -162 13
-191 12 -50 14 -52 29 -35 26 30 77 126 96 184 30 86 42 171 55 368 10 157 15
186 30 195 45 28 112 -62 148 -200 25 -98 27 -293 4 -464 -8 -63 -18 -173 -22
-243 -5 -112 -8 -127 -22 -121 -120 51 -129 51 -383 25 -112 -12 -149 -25
-203 -72 l-38 -34 6 45 c21 148 38 304 46 440 11 176 26 239 80 355 68 146
186 299 225 293 18 -3 21 -9 20 -54z m147 -998 c111 -26 154 -68 190 -188 35
-114 7 -201 -84 -266 -64 -46 -121 -53 -187 -22 -58 27 -81 23 -138 -25 -100
-86 -245 -70 -317 33 -28 41 -30 50 -30 135 0 152 46 241 150 292 43 21 77 29
166 36 62 5 115 11 117 14 9 9 76 5 133 -9z"/>
<path d="M552 5228 c-7 -7 -12 -24 -12 -39 0 -25 -4 -28 -37 -31 -29 -2 -41
-9 -53 -30 -14 -26 -13 -36 13 -135 57 -225 70 -429 41 -668 -11 -94 -23 -147
-42 -190 -37 -81 -39 -207 -5 -276 29 -58 77 -107 128 -130 58 -27 86 -24 136
16 56 44 88 44 158 0 144 -92 284 -55 326 87 21 72 19 118 -9 201 -18 52 -26
105 -31 192 -21 401 -97 644 -250 802 -74 77 -105 90 -132 56 -13 -17 -14 -17
-26 2 -23 36 -112 127 -139 141 -33 17 -50 18 -66 2z m113 -81 c105 -109 165
-258 171 -427 4 -114 7 -118 -43 50 -39 132 -109 255 -187 329 -27 26 -36 43
-36 68 0 51 33 44 95 -20z m-102 -54 c125 -107 224 -324 244 -536 3 -37 9 -69
12 -72 15 -9 27 13 39 71 25 123 10 283 -38 411 -24 66 -25 92 -3 100 24 9
133 -113 178 -199 48 -90 71 -159 95 -283 21 -111 54 -414 46 -423 -3 -2 -29
17 -58 43 -145 131 -329 148 -491 45 -59 -37 -70 -38 -63 -2 40 187 33 511
-17 692 -22 84 -32 153 -23 175 9 24 32 18 79 -22z m391 -843 c92 -44 176
-127 206 -205 33 -85 33 -175 0 -234 -36 -63 -69 -85 -130 -84 -49 1 -83 14
-185 73 -50 28 -77 23 -135 -25 -48 -40 -66 -43 -118 -16 -72 37 -121 116
-129 208 -14 158 75 257 282 314 55 15 139 3 209 -31z"/>
<path d="M13774 5221 c-38 -23 -100 -86 -122 -123 -19 -32 -25 -34 -42 -13
-25 30 -56 17 -124 -55 -36 -39 -76 -87 -89 -108 -89 -144 -145 -382 -162
-692 -5 -84 -14 -136 -32 -190 -57 -169 3 -320 138 -345 48 -9 111 9 182 51
72 42 100 43 143 4 19 -16 45 -32 58 -36 67 -16 174 54 218 144 19 38 23 64
23 137 0 76 -4 97 -24 135 -32 59 -49 168 -57 365 -7 177 10 351 45 466 32
102 36 145 17 174 -12 19 -25 25 -51 25 -32 0 -35 3 -35 28 0 52 -33 65 -86
33z m56 -52 c0 -24 -13 -46 -57 -94 -32 -34 -77 -98 -100 -141 -46 -87 -93
-221 -93 -265 0 -15 -4 -31 -10 -34 -18 -11 -11 138 10 220 29 115 81 214 148
284 67 71 102 81 102 30z m84 -99 c-1 -30 -11 -91 -22 -134 -33 -125 -45 -263
-39 -446 3 -91 11 -189 17 -218 7 -29 10 -55 8 -57 -2 -2 -28 12 -58 31 -67
42 -166 74 -229 74 -91 0 -195 -45 -273 -117 -26 -26 -51 -43 -54 -40 -8 7 22
300 42 404 34 191 100 337 199 439 33 35 66 64 73 64 24 0 25 -34 4 -94 -50
-140 -64 -278 -40 -416 9 -54 16 -70 29 -70 13 0 17 14 22 68 10 107 45 230
93 329 52 105 86 152 151 206 63 51 78 47 77 -23z m-221 -800 c91 -28 186 -93
217 -150 21 -38 25 -58 25 -125 0 -70 -4 -87 -30 -135 -32 -58 -90 -106 -140
-115 -24 -5 -40 2 -84 34 -29 23 -62 41 -74 41 -11 0 -50 -18 -86 -40 -150
-89 -259 -64 -297 69 -48 164 70 350 267 421 70 25 121 25 202 0z"/>
<path d="M6729 3431 c-27 -27 -29 -35 -29 -105 0 -80 24 -288 41 -346 5 -19
22 -179 38 -355 40 -432 41 -457 50 -717 6 -208 8 -230 27 -255 31 -41 62 -37
96 12 71 102 114 421 124 930 5 240 10 317 25 388 23 103 43 322 36 390 -8 84
-14 87 -209 87 l-170 0 -29 -29z m366 -161 c-1 -227 -38 -394 -100 -449 -50
-44 -86 -48 -140 -17 -38 23 -47 34 -60 79 -24 84 -55 284 -62 398 l-6 105 28
22 c27 21 36 22 184 20 l156 -3 0 -155z m-49 -688 c-10 -359 -40 -667 -77
-792 -21 -73 -52 -130 -70 -130 -29 0 -39 61 -39 235 0 156 -14 375 -46 723
-9 95 -13 176 -10 179 3 4 14 -1 24 -10 50 -45 135 -42 182 8 13 14 28 25 33
25 7 0 8 -84 3 -238z"/>
<path d="M7285 3440 c-11 -12 -20 -41 -23 -73 -6 -74 14 -281 38 -388 17 -73
20 -126 20 -301 0 -511 63 -961 144 -1037 30 -28 53 -25 80 12 19 25 21 47 28
280 4 139 15 331 23 427 9 96 22 252 31 345 8 94 26 233 39 310 14 77 28 195
32 262 l6 122 -31 30 -30 31 -170 0 c-157 0 -170 -1 -187 -20z m362 -36 c25
-26 26 -27 19 -127 -8 -120 -42 -333 -63 -396 -24 -71 -92 -112 -149 -91 -74
28 -107 96 -139 283 -15 89 -22 327 -10 347 4 6 65 10 161 10 153 0 155 0 181
-26z m-252 -613 c49 -43 97 -48 158 -16 l50 26 -7 -63 c-28 -280 -49 -573 -55
-788 -5 -140 -11 -263 -16 -272 -13 -32 -42 -20 -64 27 -49 105 -85 355 -101
714 -15 337 -16 401 -6 401 4 0 23 -13 41 -29z"/>
<path d="M6157 3430 c-42 -33 -51 -78 -43 -219 3 -70 17 -198 31 -286 21 -143
54 -434 85 -750 15 -164 30 -426 30 -543 0 -144 25 -201 75 -168 35 23 59 76
83 181 45 198 60 408 77 1090 2 111 9 178 21 220 12 44 18 112 21 258 5 179 3
200 -12 218 -17 17 -32 19 -180 19 -148 0 -165 -2 -188 -20z m347 -26 c9 -25
7 -282 -4 -355 -22 -154 -90 -301 -145 -315 -50 -12 -134 59 -164 138 -19 51
-43 253 -45 374 -1 116 0 123 23 148 24 26 26 26 177 26 129 0 153 -2 158 -16z
m-47 -911 c-12 -540 -56 -900 -121 -988 -32 -43 -40 -5 -47 223 -8 228 -36
571 -69 855 -11 93 -20 175 -20 183 0 9 19 0 51 -26 71 -56 108 -55 163 4 23
25 43 45 45 45 2 1 1 -133 -2 -296z"/>
<path d="M7877 3436 c-32 -32 -27 -346 7 -477 8 -30 16 -77 16 -105 1 -27 6
-195 11 -374 15 -490 38 -732 89 -904 22 -73 58 -126 85 -126 8 0 22 12 32 27
15 23 19 61 25 242 10 306 73 976 113 1211 19 112 35 276 35 357 0 71 -19 124
-54 148 -30 21 -338 22 -359 1z m350 -38 c12 -13 24 -40 28 -60 8 -44 -11
-291 -31 -394 -16 -88 -31 -118 -76 -160 -44 -42 -75 -57 -103 -50 -53 13
-121 157 -145 306 -11 70 -14 338 -4 364 5 14 29 16 158 16 145 0 154 -1 173
-22z m-166 -698 c36 0 64 15 112 58 33 32 33 40 8 -171 -19 -156 -28 -243 -51
-502 -6 -66 -14 -223 -19 -348 -9 -237 -16 -274 -47 -232 -41 55 -76 235 -99
505 -14 167 -35 767 -27 775 2 2 23 -16 46 -41 34 -35 49 -44 77 -44z"/>
<path d="M5514 3389 c-71 -46 -187 -165 -220 -229 -27 -51 -29 -63 -27 -150 1
-52 9 -120 17 -150 42 -145 62 -302 97 -780 13 -170 5 -612 -14 -745 -17 -123
-14 -135 29 -135 40 0 110 48 151 102 135 180 203 527 243 1228 11 179 15 205
48 315 32 102 37 134 37 215 0 83 -4 102 -27 150 -15 30 -46 74 -70 97 -55 53
-154 113 -188 113 -14 0 -48 -14 -76 -31z m125 -18 c58 -30 136 -95 160 -135
33 -52 41 -91 42 -186 0 -132 -68 -323 -143 -399 -39 -40 -101 -70 -142 -71
-120 -1 -228 159 -255 375 -15 126 0 175 84 279 46 56 175 156 202 156 8 0 31
-9 52 -19z m127 -753 c-3 -29 -10 -125 -16 -213 -29 -443 -70 -714 -139 -910
-43 -123 -118 -226 -188 -258 -37 -17 -42 0 -27 93 40 240 36 610 -11 1072
-14 136 -25 251 -25 255 0 4 19 -11 43 -34 23 -22 56 -48 74 -57 74 -37 186
-7 247 66 17 21 35 38 39 38 5 0 6 -24 3 -52z"/>
<path d="M8738 3395 c-72 -38 -162 -127 -189 -187 -19 -43 -23 -71 -23 -148
-1 -82 4 -112 36 -215 34 -112 37 -134 48 -325 37 -680 103 -1017 240 -1216
59 -84 184 -138 192 -81 2 12 -2 63 -9 112 -36 263 -35 549 2 950 37 401 45
462 65 520 29 85 46 238 31 292 -24 88 -132 215 -247 292 -56 37 -83 38 -146
6z m158 -54 c73 -52 152 -139 186 -206 16 -31 21 -58 20 -116 -3 -277 -165
-493 -318 -426 -87 38 -138 107 -190 262 -33 96 -37 122 -37 203 0 83 4 99 29
150 39 76 169 181 225 182 9 0 47 -22 85 -49z m-141 -770 c81 -43 181 -19 249
60 l39 44 -7 -57 c-30 -275 -53 -552 -61 -728 -7 -160 8 -447 30 -573 8 -45
12 -83 10 -85 -10 -11 -59 12 -94 43 -143 130 -222 443 -265 1050 -9 121 -18
249 -21 285 l-6 65 43 -42 c24 -22 61 -50 83 -62z"/>
<path d="M2090 3377 c-30 -13 -77 -38 -104 -55 -28 -18 -58 -32 -67 -32 -9 0
-46 14 -81 30 -140 65 -224 62 -304 -12 -68 -63 -90 -172 -65 -319 12 -65 37
-233 51 -346 16 -124 14 -297 -5 -387 -17 -81 -36 -137 -99 -286 -53 -125 -49
-235 9 -262 22 -10 31 -8 68 19 60 43 161 180 252 345 142 256 173 295 160
201 -13 -88 -55 -257 -92 -363 -38 -112 -47 -186 -24 -213 17 -21 72 -22 110
-3 45 24 135 128 165 192 80 167 174 539 235 929 10 66 28 146 40 177 15 42
21 80 21 140 0 98 -13 151 -47 196 -56 74 -125 89 -223 49z m157 -27 c18 -10
42 -39 55 -62 20 -37 23 -58 23 -153 0 -95 -4 -116 -24 -158 -41 -84 -120
-124 -220 -113 -31 3 -79 9 -106 12 -36 4 -66 1 -100 -11 -131 -45 -231 -29
-311 49 -63 62 -79 109 -71 212 14 195 148 259 339 163 74 -38 108 -37 166 3
59 40 148 77 187 78 17 0 44 -9 62 -20z m-693 -474 c94 -71 198 -86 317 -45
56 20 67 20 140 9 96 -15 180 -7 226 21 19 12 36 19 38 17 3 -2 -2 -38 -10
-79 -8 -41 -26 -137 -41 -214 -58 -310 -130 -569 -196 -699 -59 -118 -180
-207 -215 -160 -15 21 -11 51 19 134 32 88 86 297 99 381 14 86 6 109 -36 109
-27 0 -43 -23 -155 -225 -104 -186 -149 -254 -218 -327 -67 -71 -98 -77 -108
-22 -11 58 3 119 52 232 74 170 97 271 97 437 0 126 -29 388 -49 440 -9 21 4
19 40 -9z"/>
<path d="M3170 3372 c-30 -16 -64 -34 -76 -42 -19 -11 -29 -9 -84 18 -51 26
-76 32 -126 32 -69 0 -97 -8 -164 -48 -38 -23 -57 -27 -118 -27 -72 0 -74 -1
-108 -37 -29 -32 -34 -46 -36 -90 -4 -118 4 -197 32 -293 40 -140 56 -357 40
-558 -17 -220 -46 -361 -112 -537 -61 -160 -54 -271 16 -270 26 1 45 12 124
74 100 79 154 161 319 481 71 136 93 171 111 173 58 9 89 -196 48 -318 -10
-30 -32 -81 -47 -112 -62 -123 -19 -280 64 -237 122 63 238 240 287 434 26
101 32 298 16 520 -11 163 8 293 59 394 63 125 81 283 40 360 -15 30 -70 84
-102 100 -41 21 -123 13 -183 -17z m206 -33 c52 -49 66 -83 65 -166 0 -89 -24
-176 -74 -268 -32 -59 -33 -60 -92 -72 -48 -11 -82 -11 -167 -1 -102 11 -109
10 -165 -12 -76 -30 -312 -45 -355 -23 -59 29 -98 155 -98 316 l0 109 31 29
c33 31 71 37 113 18 22 -10 31 -8 73 19 118 76 192 82 301 26 l70 -36 48 33
c67 46 110 60 172 56 38 -3 59 -10 78 -28z m-191 -544 c28 0 74 4 103 8 l53 8
-8 -38 c-10 -48 -9 -283 2 -425 13 -176 -27 -388 -98 -523 -35 -65 -144 -188
-188 -210 -36 -19 -51 -1 -57 69 -4 45 1 66 31 132 54 122 61 152 61 249 0
135 -35 215 -94 215 -15 0 -36 -10 -47 -22 -11 -13 -61 -104 -111 -203 -118
-232 -192 -346 -270 -415 -104 -92 -144 -105 -155 -52 -8 39 5 94 47 205 43
114 79 262 97 397 14 106 17 432 5 524 -8 59 -8 59 16 51 12 -5 86 -7 162 -5
117 2 149 6 205 26 56 20 76 23 131 16 36 -4 88 -7 115 -7z"/>
<path d="M11045 3388 c-32 -17 -85 -71 -103 -103 -12 -22 -16 -54 -16 -120 1
-95 12 -136 66 -254 44 -96 53 -156 49 -336 -9 -381 -6 -464 18 -560 41 -159
115 -293 208 -375 91 -80 128 -86 157 -26 28 59 21 128 -23 225 -67 148 -77
265 -31 368 16 36 24 44 42 41 23 -3 25 -7 143 -238 72 -140 152 -275 197
-333 40 -51 184 -157 213 -157 70 0 79 110 20 260 -97 248 -137 545 -115 855
9 127 17 179 41 253 26 82 29 107 29 217 l0 125 -34 38 c-34 36 -36 37 -108
37 -61 0 -80 4 -118 27 -67 40 -95 48 -164 48 -50 0 -75 -6 -126 -32 -55 -27
-65 -29 -84 -18 -75 48 -134 70 -186 70 -30 -1 -64 -6 -75 -12z m145 -32 c20
-7 58 -27 84 -45 l48 -33 70 36 c109 56 183 50 301 -26 42 -27 51 -29 73 -19
39 17 76 13 109 -13 29 -23 30 -27 33 -123 2 -54 -1 -125 -7 -157 -14 -77 -53
-161 -82 -177 -16 -8 -65 -11 -149 -10 -105 2 -137 6 -200 28 -73 25 -78 26
-172 14 -102 -13 -208 -2 -235 23 -26 24 -82 156 -97 227 -14 68 -14 108 0
176 5 28 61 92 88 103 31 13 96 11 136 -4z m-50 -557 c47 -8 91 -7 160 1 92
11 97 11 160 -13 56 -21 85 -25 200 -28 74 -1 148 1 163 5 l28 8 -8 -63 c-11
-98 -8 -412 6 -522 17 -133 53 -276 101 -406 33 -87 41 -119 38 -162 -3 -48
-6 -54 -26 -57 -24 -4 -124 65 -170 117 -49 56 -120 175 -215 361 -55 107
-109 205 -120 218 -41 45 -100 18 -126 -58 -37 -109 -22 -234 44 -381 23 -50
35 -92 35 -120 0 -46 -17 -90 -37 -96 -19 -6 -155 129 -192 192 -84 140 -129
349 -116 545 11 154 12 375 2 428 -4 23 -4 42 0 42 5 0 37 -5 73 -11z"/>
<path d="M12144 3381 c-42 -26 -80 -77 -93 -126 -18 -67 -14 -198 9 -263 12
-31 36 -147 55 -257 57 -339 126 -621 191 -785 61 -155 170 -270 254 -270 23
0 43 7 51 17 22 26 15 101 -20 198 -55 153 -114 425 -92 425 9 0 81 -102 81
-115 0 -2 13 -26 28 -52 16 -26 45 -79 66 -118 86 -158 199 -301 255 -324 85
-36 122 99 65 234 -93 221 -109 271 -124 405 -7 57 -6 123 1 200 9 106 16 152
52 385 6 44 12 123 12 175 0 78 -4 102 -22 136 -45 85 -131 132 -217 119 -45
-7 -140 -41 -171 -62 -28 -18 -68 -16 -96 6 -103 80 -224 111 -285 72z m183
-45 c26 -13 63 -36 82 -50 45 -34 86 -33 158 3 192 96 327 30 341 -168 6 -97
-10 -144 -71 -205 -79 -79 -175 -97 -293 -55 -60 21 -68 21 -222 3 -164 -20
-261 94 -250 295 7 111 40 181 98 204 28 12 108 -2 157 -27z m560 -453 c-29
-105 -50 -289 -50 -433 0 -169 20 -267 85 -415 65 -148 79 -208 62 -272 -11
-39 -33 -35 -86 15 -68 63 -115 128 -194 269 -37 65 -85 151 -107 191 -62 110
-95 135 -127 97 -23 -28 21 -247 94 -467 40 -120 42 -131 21 -148 -44 -36
-164 61 -221 180 -65 134 -143 424 -199 740 -14 80 -30 165 -35 190 -5 25 -7
46 -5 48 1 2 21 -7 44 -19 56 -29 116 -34 216 -20 78 12 88 11 149 -9 119 -41
256 -17 315 54 18 22 44 21 38 -1z"/>
<path d="M4649 3334 c-162 -118 -208 -175 -209 -255 0 -19 13 -89 29 -155 71
-289 97 -825 57 -1161 -25 -214 -5 -303 68 -303 64 0 128 95 185 275 85 263
158 647 191 990 6 66 23 162 37 213 31 116 30 212 -4 255 -23 30 -176 157
-211 176 -41 22 -78 13 -143 -35z m224 -64 c53 -44 103 -93 112 -109 42 -83
-9 -278 -98 -370 -51 -53 -91 -71 -157 -71 -128 0 -214 104 -250 302 -15 81
-2 122 57 179 81 78 182 149 211 149 20 0 56 -23 125 -80z m73 -502 c-3 -18
-15 -107 -26 -198 -41 -322 -92 -570 -167 -810 -54 -173 -109 -270 -154 -270
-53 0 -63 86 -38 307 18 153 20 213 15 428 -3 142 -14 315 -24 400 -10 83 -17
152 -15 154 2 3 18 -9 36 -26 49 -47 91 -64 158 -64 72 -1 135 27 176 76 36
43 45 43 39 3z"/>
<path d="M9521 3305 c-131 -103 -145 -122 -149 -211 -3 -55 2 -91 21 -155 14
-46 28 -122 32 -169 16 -216 93 -671 146 -870 83 -309 153 -440 233 -440 74 0
96 99 69 305 -43 327 -13 890 63 1184 13 51 24 109 24 129 0 60 -35 115 -113
179 -186 154 -191 155 -326 48z m209 6 c114 -86 179 -151 190 -189 18 -67 -26
-243 -77 -311 -43 -56 -108 -91 -170 -91 -68 0 -110 18 -158 66 -87 86 -142
293 -100 374 14 27 156 153 200 178 35 20 61 13 115 -27z m-172 -600 c80 -43
193 -27 263 36 22 20 41 34 43 32 2 -2 -2 -47 -9 -99 -40 -289 -44 -697 -11
-949 26 -196 -12 -291 -86 -213 -101 105 -228 606 -288 1127 -5 50 -13 106
-16 125 l-6 34 45 -41 c24 -22 54 -46 65 -52z"/>
<path d="M3920 3362 c-39 -17 -178 -108 -207 -135 -18 -17 -38 -47 -44 -66
-19 -56 -14 -167 9 -255 12 -44 22 -100 22 -125 0 -62 34 -322 65 -500 45
-252 55 -357 55 -551 0 -205 13 -280 52 -301 16 -9 26 -7 47 8 45 33 99 121
140 227 75 193 107 382 122 700 10 233 30 406 58 517 11 41 24 109 30 152 20
144 -10 195 -169 288 -84 49 -136 60 -180 41z m171 -72 c124 -74 142 -96 147
-171 10 -133 -35 -286 -107 -362 -65 -69 -110 -90 -185 -85 -111 7 -193 94
-237 250 -28 103 -29 178 -2 239 18 41 32 53 129 112 72 44 119 67 140 67 19
0 62 -19 115 -50z m-244 -627 c37 -21 57 -26 107 -25 78 1 126 22 183 78 l45
46 -5 -44 c-9 -72 -26 -292 -37 -478 -15 -253 -62 -467 -143 -640 -33 -71 -83
-140 -102 -140 -32 0 -40 42 -41 235 -3 236 -7 289 -49 545 -34 205 -58 377
-70 480 l-5 55 36 -43 c20 -23 56 -54 81 -69z"/>
<path d="M10335 3342 c-194 -107 -225 -153 -205 -304 6 -46 20 -114 30 -153
28 -100 50 -297 60 -535 14 -315 46 -491 122 -687 45 -118 105 -214 144 -232
23 -10 30 -9 46 6 11 10 25 29 31 43 6 14 14 140 18 280 6 234 10 274 47 492
23 130 48 303 57 385 18 173 28 239 51 347 15 73 15 83 0 144 -20 81 -38 100
-165 180 -118 74 -155 79 -236 34z m231 -69 c110 -71 126 -89 144 -166 17 -79
-28 -254 -88 -336 -49 -67 -96 -95 -168 -99 -74 -5 -112 11 -174 71 -74 73
-119 206 -120 354 0 86 15 109 117 173 141 90 153 90 289 3z m89 -639 c-9 -71
-32 -221 -51 -334 -49 -292 -56 -360 -58 -590 -2 -207 -9 -250 -40 -250 -35 0
-108 129 -159 280 -44 128 -76 313 -87 495 -13 218 -30 439 -37 490 l-6 40 28
-33 c15 -18 51 -46 79 -62 43 -25 62 -30 122 -30 62 0 76 4 116 30 26 17 58
47 73 66 15 19 29 33 32 31 2 -3 -3 -63 -12 -133z"/>
<path d="M978 3340 c-27 -5 -77 -18 -113 -30 -62 -21 -68 -21 -112 -6 -67 23
-187 21 -242 -4 -27 -13 -65 -20 -100 -20 -63 0 -83 -13 -116 -79 -25 -51 -17
-207 15 -276 23 -47 24 -61 24 -270 1 -199 -1 -228 -22 -303 -35 -129 -82
-212 -172 -306 -89 -92 -105 -129 -71 -160 32 -29 162 -19 224 18 108 62 253
229 338 388 23 43 44 76 47 74 8 -9 -41 -180 -74 -260 -18 -43 -49 -106 -69
-139 -20 -33 -41 -79 -47 -103 -35 -129 121 -81 306 95 193 185 300 457 331
841 5 54 20 122 42 188 40 122 49 182 34 238 -13 48 -78 114 -114 114 -12 0
-31 2 -42 4 -11 2 -41 0 -67 -4z m141 -46 c27 -19 60 -88 61 -125 0 -29 -44
-189 -63 -229 -12 -24 -15 -25 -127 -26 -92 -1 -127 -5 -175 -23 -133 -49
-153 -53 -258 -49 -125 4 -168 22 -211 92 -55 88 -45 275 17 308 12 6 41 10
63 9 23 -1 65 7 94 19 64 25 157 28 219 6 57 -21 73 -20 156 9 85 30 188 34
224 9z m-19 -432 c0 -63 -34 -286 -59 -383 -62 -246 -166 -422 -325 -548 -64
-50 -164 -111 -184 -111 -20 0 -13 53 13 100 89 159 123 243 150 373 21 97 20
147 -3 147 -12 0 -31 -26 -62 -86 -89 -175 -219 -333 -335 -410 -48 -32 -67
-39 -121 -42 -62 -4 -94 6 -94 30 0 5 35 43 78 86 88 88 147 188 184 318 21
72 23 99 23 299 l0 220 49 -25 c44 -22 62 -24 155 -23 105 0 117 3 251 52 77
28 280 31 280 3z"/>
<path d="M13325 3340 c-133 -19 -164 -139 -93 -355 23 -68 39 -140 43 -190 30
-368 125 -622 304 -809 100 -103 238 -196 294 -196 62 0 58 69 -11 182 -21 35
-53 99 -70 143 -34 87 -76 235 -68 242 3 3 17 -18 33 -47 93 -173 259 -363
362 -413 69 -34 175 -38 211 -9 36 29 20 68 -59 144 -164 158 -220 341 -208
679 6 143 10 174 32 232 47 125 28 278 -40 323 -17 11 -43 17 -74 15 -30 -1
-65 6 -92 19 -54 24 -168 27 -243 5 -49 -14 -56 -14 -112 6 -71 25 -154 36
-209 29z m188 -57 c86 -26 89 -26 141 -10 72 23 163 22 226 -3 28 -11 73 -20
100 -20 38 0 54 -5 70 -22 51 -55 53 -216 3 -296 -44 -71 -93 -91 -223 -91
-80 0 -118 4 -160 20 -131 48 -146 51 -262 53 -64 1 -118 4 -121 6 -2 3 -17
48 -33 100 -47 154 -36 240 37 277 40 21 127 15 222 -14z m67 -424 c134 -49
146 -52 250 -52 88 -1 113 3 154 21 27 12 51 21 52 19 2 -2 -1 -52 -6 -113
-16 -180 13 -393 71 -520 32 -70 98 -160 163 -223 78 -75 74 -91 -25 -91 -137
0 -307 160 -458 433 -63 114 -91 134 -91 68 0 -120 57 -289 158 -471 17 -30
32 -66 34 -80 3 -22 -1 -25 -24 -23 -44 3 -167 89 -253 177 -160 163 -250 387
-290 716 -22 179 -34 160 98 160 87 -1 124 -5 167 -21z"/>
</g>
</svg>
